# xmcd
#
# Track frame offsets:
#	150
#	19749
#	35611
#	52746
#	75853
#	90654
#	106202
#	124403
#	140199
#	160765
#	181135
#	204972
#	226725
#	247281
#	264932
#	285508
#	301142
#	319136
#
# Disc length: 4509 seconds
#
# Revision: 0
# Processed by: cddbd v1.5.2PL0 Copyright (c) Steve Scherf et al.
# Submitted via: audiograbber 1.83.01
#
DISCID=e5119b12
DTITLE=Dionne Warwick - Night and Day
DYEAR=1900
DGENRE=Soul
TTITLE0=Heartbreaker
TTITLE1=All the love in the world
TTITLE2=Our day will come
TTITLE3=Dèja vu
TTITLE4=Easy love
TTITLE5=It´s the falling in love
TTITLE6=After you
TTITLE7=I can´t see anything (but you)
TTITLE8=Run to me
TTITLE9=You made me want to love again
TTITLE10=Got a date
TTITLE11=Captives of the heart
TTITLE12=Love power (with Jeffrey Osborne)
TTITLE13=Take the short way home
TTITLE14=Moments aren´t moments
TTITLE15=No night so long
TTITLE16=Some changes are for good
TTITLE17=Night and day (Jazz version)
EXTD=
EXTT0=
EXTT1=
EXTT2=
EXTT3=
EXTT4=
EXTT5=
EXTT6=
EXTT7=
EXTT8=
EXTT9=
EXTT10=
EXTT11=
EXTT12=
EXTT13=
EXTT14=
EXTT15=
EXTT16=
EXTT17=
PLAYORDER=
